<svg width="483" height="71" viewBox="0 0 483 71" fill="none" xmlns="http://www.w3.org/2000/svg">
<path d="M0.254313 69H19.3643L11.1743 58.08V16.402L31.2853 52.256H34.5613L55.4913 14.946V58.08L47.3013 69H77.3313L69.1413 58.08V12.58L77.3313 1.66H47.3013L54.3993 11.124L39.2023 38.242L18.9093 2.206L19.3643 1.66H0.254313L8.44431 12.58V58.08L0.254313 69ZM82.8141 56.988C82.8141 64.086 87.7281 70.365 95.3721 70.365C101.833 70.365 106.747 66.179 109.75 61.902V69H128.496L121.58 58.08V34.693C121.58 27.777 119.032 22.135 105.746 22.135C96.6461 22.135 89.8211 23.591 86.7271 24.774L92.7331 37.423C97.8291 31.053 104.108 25.229 105.746 24.774C109.659 24.774 109.75 32.691 109.75 34.693V37.423C97.9201 39.88 82.8141 45.977 82.8141 56.988ZM95.5541 55.441C95.5541 50.982 101.378 42.974 109.75 40.244V58.08C107.293 60.264 104.29 62.357 100.104 62.357C97.2831 62.357 95.5541 59.9 95.5541 55.441ZM136.501 8.212C136.501 12.58 140.141 16.22 144.509 16.22C148.786 16.22 152.426 12.58 152.426 8.212C152.426 3.935 148.786 0.294995 144.509 0.294995C140.141 0.294995 136.501 3.935 136.501 8.212ZM131.587 69H157.249L150.333 58.08V23.5L131.587 27.14L138.503 36.695V58.08L131.587 69ZM160.744 69H185.496L179.49 58.08V35.512C182.948 32.327 186.952 29.779 191.593 29.779C195.506 29.779 195.597 32.691 195.597 34.693V58.08L189.591 69H214.343L207.427 58.08V34.693C207.427 27.777 205.425 22.135 195.961 22.135C189.409 22.135 183.767 26.867 179.49 32.145V23.5L160.744 27.14L167.66 36.695V58.08L160.744 69ZM250.794 69H301.299L303.028 52.347L279.095 66.27H272.634V35.785H278.185L295.384 45.704V23.136L278.185 33.055H272.634V4.39H278.185L303.028 18.313L301.299 1.66H250.794L258.984 12.58V58.08L250.794 69ZM304.573 23.5L314.128 34.42L328.415 69H333.511L347.798 34.42L357.353 23.5H342.884L345.25 34.42L336.605 55.623L327.778 34.42L330.235 23.5H304.573ZM355.253 46.25C355.253 59.536 366.082 70.365 380.46 70.365C389.014 70.365 393.564 67.089 397.204 64.359L394.201 59.991C391.653 63.176 386.466 67.089 383.554 67.726C377.002 67.726 372.088 59.536 369.449 51.164L400.207 43.156C400.207 33.874 391.38 22.135 379.095 22.135C366.082 22.135 355.253 32.964 355.253 46.25ZM367.265 38.879C367.265 30.689 370.268 24.774 374.818 24.774C382.371 24.774 386.284 36.331 387.103 43.702L368.63 48.434C367.72 44.885 367.265 41.518 367.265 38.879ZM402.552 69H427.304L421.298 58.08V35.512C424.756 32.327 428.76 29.779 433.401 29.779C437.314 29.779 437.405 32.691 437.405 34.693V58.08L431.399 69H456.151L449.235 58.08V34.693C449.235 27.777 447.233 22.135 437.769 22.135C431.217 22.135 425.575 26.867 421.298 32.145V23.5L402.552 27.14L409.468 36.695V58.08L402.552 69ZM457.785 25.775H461.971V57.807C461.971 66.543 465.429 70.365 473.983 70.365C478.351 70.365 481.536 68.545 482.901 67.453L482.173 65.815C480.717 66.725 478.806 67.635 476.895 67.635C474.347 67.635 473.801 65.087 473.801 57.807V25.775H481.081V23.5H473.801V9.395L457.785 24.046V25.775Z" fill="#FCEB8F"/>
<path d="M0.254313 69L-7.74569 63C-10.0183 66.0302 -10.3839 70.0843 -8.68996 73.4721C-6.99604 76.86 -3.53341 79 0.254313 79V69ZM19.3643 69V79C23.152 79 26.6147 76.86 28.3086 73.4721C30.0025 70.0843 29.6369 66.0302 27.3643 63L19.3643 69ZM11.1743 58.08H1.17431C1.17431 60.2437 1.87609 62.349 3.17431 64.08L11.1743 58.08ZM11.1743 16.402L19.896 11.5099C17.6705 7.54229 13.0475 5.57676 8.64613 6.72686C4.24477 7.87697 1.17431 11.8529 1.17431 16.402H11.1743ZM31.2853 52.256L22.5637 57.1481C24.3331 60.3028 27.6683 62.256 31.2853 62.256V52.256ZM34.5613 52.256V62.256C38.1782 62.256 41.5132 60.3029 43.2827 57.1485L34.5613 52.256ZM55.4913 14.946H65.4913C65.4913 10.3969 62.421 6.4211 58.0197 5.27092C53.6185 4.12073 48.9955 6.08606 46.7699 10.0535L55.4913 14.946ZM55.4913 58.08L63.4913 64.08C64.7895 62.349 65.4913 60.2437 65.4913 58.08H55.4913ZM47.3013 69L39.3013 63C37.0287 66.0302 36.6631 70.0843 38.357 73.4721C40.051 76.86 43.5136 79 47.3013 79V69ZM77.3313 69V79C81.119 79 84.5817 76.86 86.2756 73.4721C87.9695 70.0843 87.604 66.0302 85.3313 63L77.3313 69ZM69.1413 58.08H59.1413C59.1413 60.2437 59.8431 62.349 61.1413 64.08L69.1413 58.08ZM69.1413 12.58L61.1413 6.58C59.8431 8.31096 59.1413 10.4163 59.1413 12.58H69.1413ZM77.3313 1.66L85.3313 7.66C87.604 4.62982 87.9695 0.575705 86.2756 -2.81214C84.5817 -6.19998 81.119 -8.34 77.3313 -8.34V1.66ZM47.3013 1.66V-8.34C43.5136 -8.34 40.051 -6.19998 38.357 -2.81214C36.6631 0.575705 37.0287 4.62982 39.3013 7.66L47.3013 1.66ZM54.3993 11.124L63.1229 16.0127C65.0579 12.5598 64.7742 8.29051 62.3993 5.12399L54.3993 11.124ZM39.2023 38.242L30.4889 43.1488C32.2626 46.2984 35.598 48.2457 39.2127 48.242C42.8274 48.2382 46.1587 46.284 47.9259 43.1307L39.2023 38.242ZM18.9093 2.206L11.2271 -4.19585C8.56888 -1.00598 8.15847 3.49473 10.1959 7.11279L18.9093 2.206ZM19.3643 1.66L27.0465 8.06185C29.5306 5.08102 30.066 0.932299 28.4202 -2.58155C26.7744 -6.0954 23.2445 -8.34 19.3643 -8.34V1.66ZM0.254313 1.66V-8.34C-3.53341 -8.34 -6.99604 -6.19998 -8.68996 -2.81214C-10.3839 0.575703 -10.0183 4.62982 -7.74569 7.66L0.254313 1.66ZM8.44431 12.58H18.4443C18.4443 10.4163 17.7425 8.31096 16.4443 6.58L8.44431 12.58ZM8.44431 58.08L16.4443 64.08C17.7425 62.349 18.4443 60.2437 18.4443 58.08H8.44431ZM0.254313 79H19.3643V59H0.254313V79ZM27.3643 63L19.1743 52.08L3.17431 64.08L11.3643 75L27.3643 63ZM21.1743 58.08V16.402H1.17431V58.08H21.1743ZM2.45265 21.2941L22.5637 57.1481L40.007 47.3639L19.896 11.5099L2.45265 21.2941ZM31.2853 62.256H34.5613V42.256H31.2853V62.256ZM43.2827 57.1485L64.2127 19.8385L46.7699 10.0535L25.8399 47.3635L43.2827 57.1485ZM45.4913 14.946V58.08H65.4913V14.946H45.4913ZM47.4913 52.08L39.3013 63L55.3013 75L63.4913 64.08L47.4913 52.08ZM47.3013 79H77.3313V59H47.3013V79ZM85.3313 63L77.1413 52.08L61.1413 64.08L69.3313 75L85.3313 63ZM79.1413 58.08V12.58H59.1413V58.08H79.1413ZM77.1413 18.58L85.3313 7.66L69.3313 -4.34L61.1413 6.58L77.1413 18.58ZM77.3313 -8.34H47.3013V11.66H77.3313V-8.34ZM39.3013 7.66L46.3993 17.124L62.3993 5.12399L55.3013 -4.34L39.3013 7.66ZM45.6758 6.23529L30.4788 33.3533L47.9259 43.1307L63.1229 16.0127L45.6758 6.23529ZM47.9157 33.3352L27.6227 -2.70079L10.1959 7.11279L30.4889 43.1488L47.9157 33.3352ZM26.5915 8.60785L27.0465 8.06185L11.6821 -4.74185L11.2271 -4.19585L26.5915 8.60785ZM19.3643 -8.34H0.254313V11.66H19.3643V-8.34ZM-7.74569 7.66L0.444313 18.58L16.4443 6.58L8.25431 -4.34L-7.74569 7.66ZM-1.55569 12.58V58.08H18.4443V12.58H-1.55569ZM0.444313 52.08L-7.74569 63L8.25431 75L16.4443 64.08L0.444313 52.08ZM109.75 61.902H119.75C119.75 57.5399 116.923 53.6811 112.763 52.3668C108.604 51.0524 104.073 52.5857 101.566 56.1557L109.75 61.902ZM109.75 69H99.7501C99.7501 74.5229 104.227 79 109.75 79V69ZM128.496 69V79C132.142 79 135.499 77.0157 137.257 73.8216C139.015 70.6274 138.895 66.7296 136.944 63.6495L128.496 69ZM121.58 58.08H111.58C111.58 59.9745 112.118 61.83 113.132 63.4305L121.58 58.08ZM86.7271 24.774L83.1557 15.4335C80.5518 16.4291 78.4817 18.4664 77.4447 21.0541C76.4077 23.6418 76.4979 26.545 77.6937 29.0632L86.7271 24.774ZM92.7331 37.423L83.6997 41.7122C85.1779 44.8255 88.1551 46.9582 91.5784 47.3561C95.0018 47.754 98.3888 46.3611 100.542 43.6699L92.7331 37.423ZM105.746 24.774V14.774C104.842 14.774 103.941 14.8967 103.07 15.1388L105.746 24.774ZM109.75 37.423L111.784 47.2141C116.424 46.2504 119.75 42.1621 119.75 37.423H109.75ZM109.75 40.244H119.75C119.75 37.0411 118.216 34.032 115.624 32.1507C113.031 30.2695 109.695 29.7437 106.65 30.7367L109.75 40.244ZM109.75 58.08L116.394 65.5541C118.529 63.6564 119.75 60.9364 119.75 58.08H109.75ZM72.8141 56.988C72.8141 68.469 81.1305 80.365 95.3721 80.365V60.365C94.8552 60.365 94.5321 60.2646 94.3307 60.1728C94.1199 60.0768 93.9085 59.9285 93.7007 59.6946C93.2633 59.2025 92.8141 58.2739 92.8141 56.988H72.8141ZM95.3721 80.365C106.459 80.365 114.015 73.2309 117.934 67.6483L101.566 56.1557C99.4796 59.1271 97.2069 60.365 95.3721 60.365V80.365ZM99.7501 61.902V69H119.75V61.902H99.7501ZM109.75 79H128.496V59H109.75V79ZM136.944 63.6495L130.028 52.7295L113.132 63.4305L120.048 74.3505L136.944 63.6495ZM131.58 58.08V34.693H111.58V58.08H131.58ZM131.58 34.693C131.58 30.2914 130.825 23.8074 125.681 18.7143C120.639 13.7217 113.469 12.135 105.746 12.135V32.135C111.309 32.135 112.057 33.3693 111.61 32.9267C111.061 32.3836 111.58 32.1786 111.58 34.693H131.58ZM105.746 12.135C95.7942 12.135 87.6901 13.6998 83.1557 15.4335L90.2984 34.1145C91.9521 33.4822 97.4979 32.135 105.746 32.135V12.135ZM77.6937 29.0632L83.6997 41.7122L101.766 33.1338L95.7605 20.4848L77.6937 29.0632ZM100.542 43.6699C102.797 40.8507 105.339 38.1263 107.452 36.1031C108.514 35.0862 109.365 34.3455 109.935 33.8951C110.226 33.6652 110.337 33.5962 110.292 33.6248C110.267 33.6411 110.126 33.7305 109.889 33.8497C109.692 33.9494 109.173 34.2008 108.423 34.4092L103.07 15.1388C101.388 15.6061 100.09 16.4112 99.5589 16.749C98.8372 17.208 98.149 17.7185 97.5415 18.1981C96.3147 19.1667 94.9697 20.3655 93.6202 21.6577C90.9101 24.2527 87.765 27.6253 84.9244 31.176L100.542 43.6699ZM105.746 34.774C104.457 34.774 103.145 34.4237 101.995 33.751C100.913 33.1186 100.258 32.3709 99.9165 31.8983C99.3385 31.0982 99.3386 30.6526 99.469 31.2204C99.5651 31.6391 99.6482 32.2497 99.6978 32.9775C99.7449 33.6699 99.7501 34.2804 99.7501 34.693H119.75C119.75 33.6604 119.75 30.1791 118.962 26.7451C118.58 25.0834 117.824 22.5334 116.128 20.1863C114.212 17.533 110.733 14.774 105.746 14.774V34.774ZM99.7501 34.693V37.423H119.75V34.693H99.7501ZM107.717 27.6319C101.213 28.9827 93.247 31.4268 86.6358 35.4622C80.2429 39.3644 72.8141 46.2819 72.8141 56.988H92.8141C92.8141 56.6831 92.9382 55.0466 97.0558 52.5333C100.955 50.1532 106.457 48.3203 111.784 47.2141L107.717 27.6319ZM105.554 55.441C105.554 56.3255 105.322 56.5011 105.622 55.8707C105.869 55.3532 106.34 54.5886 107.084 53.7265C108.611 51.9572 110.687 50.4568 112.85 49.7513L106.65 30.7367C100.441 32.7612 95.4196 36.6298 91.941 40.6618C88.7936 44.3099 85.5541 49.7033 85.5541 55.441H105.554ZM99.7501 40.244V58.08H119.75V40.244H99.7501ZM103.106 50.6059C102.166 51.4415 101.546 51.8701 101.078 52.1061C100.702 52.2953 100.435 52.357 100.104 52.357V72.357C108.009 72.357 113.354 68.2563 116.394 65.5541L103.106 50.6059ZM100.104 52.357C100.887 52.357 101.901 52.5387 102.933 53.093C103.963 53.6456 104.661 54.3806 105.079 55.0055C105.811 56.0982 105.554 56.5924 105.554 55.441H85.5541C85.5541 58.7486 86.1614 62.7009 88.4631 66.1367C91.0838 70.0488 95.321 72.357 100.104 72.357V52.357ZM131.587 69L123.139 63.6495C121.188 66.7296 121.068 70.6274 122.826 73.8216C124.584 77.0157 127.941 79 131.587 79V69ZM157.249 69V79C160.895 79 164.252 77.0157 166.01 73.8216C167.768 70.6274 167.648 66.7296 165.697 63.6495L157.249 69ZM150.333 58.08H140.333C140.333 59.9745 140.871 61.83 141.885 63.4305L150.333 58.08ZM150.333 23.5H160.333C160.333 20.5139 158.999 17.684 156.695 15.7844C154.391 13.8848 151.358 13.1142 148.427 13.6833L150.333 23.5ZM131.587 27.14L129.681 17.3233C126.329 17.9742 123.541 20.2902 122.287 23.4657C121.032 26.6413 121.485 30.2375 123.487 33.0034L131.587 27.14ZM138.503 36.695H148.503C148.503 34.5893 147.839 32.5374 146.604 30.8316L138.503 36.695ZM138.503 58.08L146.951 63.4305C147.965 61.83 148.503 59.9745 148.503 58.08H138.503ZM126.501 8.212C126.501 18.1029 134.618 26.22 144.509 26.22V6.22C145.151 6.22 145.645 6.48982 145.938 6.78293C146.231 7.07604 146.501 7.57047 146.501 8.212H126.501ZM144.509 26.22C154.383 26.22 162.426 18.0288 162.426 8.212H142.426C142.426 7.57438 142.692 7.0937 142.973 6.81071C143.249 6.53237 143.767 6.22 144.509 6.22V26.22ZM162.426 8.212C162.426 -1.58785 154.309 -9.705 144.509 -9.705V10.295C143.771 10.295 143.267 9.98683 143.001 9.72069C142.734 9.45455 142.426 8.94971 142.426 8.212H162.426ZM144.509 -9.705C134.692 -9.705 126.501 -1.66165 126.501 8.212H146.501C146.501 8.9539 146.189 9.4722 145.911 9.74836C145.628 10.0291 145.147 10.295 144.509 10.295V-9.705ZM131.587 79H157.249V59H131.587V79ZM165.697 63.6495L158.781 52.7295L141.885 63.4305L148.801 74.3505L165.697 63.6495ZM160.333 58.08V23.5H140.333V58.08H160.333ZM148.427 13.6833L129.681 17.3233L133.493 36.9566L152.239 33.3167L148.427 13.6833ZM123.487 33.0034L130.403 42.5584L146.604 30.8316L139.688 21.2766L123.487 33.0034ZM128.503 36.695V58.08H148.503V36.695H128.503ZM130.055 52.7295L123.139 63.6495L140.035 74.3505L146.951 63.4305L130.055 52.7295ZM160.744 69L152.296 63.6495C150.345 66.7296 150.225 70.6274 151.983 73.8216C153.741 77.0157 157.098 79 160.744 79V69ZM185.496 69V79C189.032 79 192.305 77.133 194.104 74.0896C195.904 71.0462 195.962 67.2788 194.258 64.1808L185.496 69ZM179.49 58.08H169.49C169.49 59.765 169.916 61.4227 170.728 62.8992L179.49 58.08ZM179.49 35.512L172.715 28.1565C170.66 30.0499 169.49 32.7172 169.49 35.512H179.49ZM195.597 58.08L204.359 62.8992C205.171 61.4227 205.597 59.765 205.597 58.08H195.597ZM189.591 69L180.829 64.1808C179.125 67.2788 179.184 71.0462 180.983 74.0896C182.783 77.133 186.056 79 189.591 79V69ZM214.343 69V79C217.989 79 221.346 77.0157 223.104 73.8216C224.862 70.6274 224.742 66.7296 222.791 63.6495L214.343 69ZM207.427 58.08H197.427C197.427 59.9745 197.965 61.83 198.979 63.4305L207.427 58.08ZM179.49 32.145H169.49C169.49 36.3804 172.158 40.1564 176.151 41.5708C180.143 42.9853 184.593 41.7314 187.26 38.4408L179.49 32.145ZM179.49 23.5H189.49C189.49 20.5139 188.156 17.684 185.852 15.7844C183.548 13.8848 180.515 13.1142 177.584 13.6833L179.49 23.5ZM160.744 27.14L158.838 17.3233C155.486 17.9742 152.698 20.2902 151.444 23.4657C150.189 26.6413 150.642 30.2375 152.644 33.0034L160.744 27.14ZM167.66 36.695H177.66C177.66 34.5893 176.995 32.5374 175.761 30.8316L167.66 36.695ZM167.66 58.08L176.108 63.4305C177.122 61.83 177.66 59.9745 177.66 58.08H167.66ZM160.744 79H185.496V59H160.744V79ZM194.258 64.1808L188.252 53.2608L170.728 62.8992L176.734 73.8192L194.258 64.1808ZM189.49 58.08V35.512H169.49V58.08H189.49ZM186.265 42.8674C189.098 40.2577 190.737 39.779 191.593 39.779V19.779C183.168 19.779 176.798 24.3962 172.715 28.1565L186.265 42.8674ZM191.593 39.779C191.357 39.779 190.35 39.7353 189.087 39.0476C187.725 38.306 186.765 37.1963 186.202 36.1215C185.711 35.1826 185.616 34.4554 185.6 34.3272C185.584 34.2018 185.597 34.2056 185.597 34.693H205.597C205.597 34.0428 205.746 30.3338 203.923 26.849C202.849 24.7959 201.131 22.8331 198.652 21.4829C196.271 20.1867 193.786 19.779 191.593 19.779V39.779ZM185.597 34.693V58.08H205.597V34.693H185.597ZM186.835 53.2608L180.829 64.1808L198.353 73.8192L204.359 62.8992L186.835 53.2608ZM189.591 79H214.343V59H189.591V79ZM222.791 63.6495L215.875 52.7295L198.979 63.4305L205.895 74.3505L222.791 63.6495ZM217.427 58.08V34.693H197.427V58.08H217.427ZM217.427 34.693C217.427 30.6833 216.939 24.8139 213.282 19.8721C209.137 14.2709 202.752 12.135 195.961 12.135V32.135C197.37 32.135 197.885 32.3493 197.877 32.3462C197.772 32.3022 197.456 32.1087 197.205 31.7689C197.011 31.5071 197.091 31.4721 197.207 31.9942C197.329 32.5367 197.427 33.3979 197.427 34.693H217.427ZM195.961 12.135C184.603 12.135 176.371 20.1109 171.721 25.8492L187.26 38.4408C191.164 33.6231 194.215 32.135 195.961 32.135V12.135ZM189.49 32.145V23.5H169.49V32.145H189.49ZM177.584 13.6833L158.838 17.3233L162.65 36.9566L181.396 33.3167L177.584 13.6833ZM152.644 33.0034L159.56 42.5584L175.761 30.8316L168.845 21.2766L152.644 33.0034ZM157.66 36.695V58.08H177.66V36.695H157.66ZM159.212 52.7295L152.296 63.6495L169.192 74.3505L176.108 63.4305L159.212 52.7295ZM250.794 69L242.794 63C240.522 66.0302 240.156 70.0843 241.85 73.4721C243.544 76.86 247.007 79 250.794 79V69ZM301.299 69V79C306.422 79 310.717 75.1283 311.246 70.0327L301.299 69ZM303.028 52.347L312.975 53.3797C313.364 49.6358 311.617 45.9907 308.456 43.9479C305.294 41.9051 301.253 41.8105 298 43.7033L303.028 52.347ZM279.095 66.27V76.27C280.862 76.27 282.597 75.802 284.124 74.9137L279.095 66.27ZM272.634 66.27H262.634C262.634 71.7928 267.112 76.27 272.634 76.27V66.27ZM272.634 35.785V25.785C267.112 25.785 262.634 30.2621 262.634 35.785H272.634ZM278.185 35.785L283.181 27.1224C281.662 26.2462 279.939 25.785 278.185 25.785V35.785ZM295.384 45.704L290.388 54.3666C293.483 56.1511 297.294 56.1497 300.386 54.3631C303.479 52.5764 305.384 49.2758 305.384 45.704H295.384ZM295.384 23.136H305.384C305.384 19.5642 303.479 16.2636 300.386 14.4769C297.294 12.6903 293.483 12.6889 290.388 14.4734L295.384 23.136ZM278.185 33.055V43.055C279.939 43.055 281.662 42.5938 283.181 41.7176L278.185 33.055ZM272.634 33.055H262.634C262.634 38.5778 267.112 43.055 272.634 43.055V33.055ZM272.634 4.39V-5.61C267.112 -5.61 262.634 -1.13285 262.634 4.39H272.634ZM278.185 4.39L283.074 -4.33343C281.581 -5.17045 279.897 -5.61 278.185 -5.61V4.39ZM303.028 18.313L298.139 27.0364C301.398 28.8625 305.402 28.7205 308.523 26.6682C311.644 24.6159 313.361 20.9955 312.975 17.2803L303.028 18.313ZM301.299 1.66L311.246 0.627298C310.717 -4.46834 306.422 -8.34 301.299 -8.34V1.66ZM250.794 1.66V-8.34C247.007 -8.34 243.544 -6.19998 241.85 -2.81214C240.156 0.575703 240.522 4.62982 242.794 7.66L250.794 1.66ZM258.984 12.58H268.984C268.984 10.4163 268.283 8.31096 266.984 6.58L258.984 12.58ZM258.984 58.08L266.984 64.08C268.283 62.349 268.984 60.2437 268.984 58.08H258.984ZM250.794 79H301.299V59H250.794V79ZM311.246 70.0327L312.975 53.3797L293.082 51.3143L291.353 67.9673L311.246 70.0327ZM298 43.7033L274.067 57.6263L284.124 74.9137L308.057 60.9907L298 43.7033ZM279.095 56.27H272.634V76.27H279.095V56.27ZM282.634 66.27V35.785H262.634V66.27H282.634ZM272.634 45.785H278.185V25.785H272.634V45.785ZM273.189 44.4476L290.388 54.3666L300.38 37.0414L283.181 27.1224L273.189 44.4476ZM305.384 45.704V23.136H285.384V45.704H305.384ZM290.388 14.4734L273.189 24.3924L283.181 41.7176L300.38 31.7986L290.388 14.4734ZM278.185 23.055H272.634V43.055H278.185V23.055ZM282.634 33.055V4.39H262.634V33.055H282.634ZM272.634 14.39H278.185V-5.61H272.634V14.39ZM273.296 13.1134L298.139 27.0364L307.917 9.58957L283.074 -4.33343L273.296 13.1134ZM312.975 17.2803L311.246 0.627298L291.353 2.6927L293.082 19.3457L312.975 17.2803ZM301.299 -8.34H250.794V11.66H301.299V-8.34ZM242.794 7.66L250.984 18.58L266.984 6.58L258.794 -4.34L242.794 7.66ZM248.984 12.58V58.08H268.984V12.58H248.984ZM250.984 52.08L242.794 63L258.794 75L266.984 64.08L250.984 52.08ZM304.573 23.5V13.5C300.649 13.5 297.088 15.7947 295.467 19.3678C293.846 22.941 294.464 27.1321 297.047 30.085L304.573 23.5ZM314.128 34.42L323.37 30.6015C322.953 29.5917 322.373 28.6572 321.654 27.8349L314.128 34.42ZM328.415 69L319.173 72.8185C320.719 76.5597 324.367 79 328.415 79V69ZM333.511 69V79C337.559 79 341.208 76.5597 342.753 72.8185L333.511 69ZM347.798 34.42L340.272 27.8349C339.553 28.6572 338.973 29.5917 338.556 30.6015L347.798 34.42ZM357.353 23.5L364.879 30.085C367.463 27.1321 368.081 22.941 366.46 19.3678C364.838 15.7947 361.277 13.5 357.353 13.5V23.5ZM342.884 23.5V13.5C339.86 13.5 336.999 14.8683 335.1 17.2221C333.202 19.5758 332.471 22.6622 333.111 25.6175L342.884 23.5ZM345.25 34.42L354.51 38.1955C355.272 36.3279 355.451 34.2736 355.023 32.3025L345.25 34.42ZM336.605 55.623L327.373 59.4663C328.93 63.2066 332.59 65.6378 336.642 65.6229C340.693 65.6081 344.336 63.1501 345.865 59.3985L336.605 55.623ZM327.778 34.42L318.022 32.2249C317.568 34.2435 317.751 36.3532 318.546 38.2633L327.778 34.42ZM330.235 23.5L339.991 25.6951C340.658 22.7314 339.942 19.6252 338.044 17.253C336.146 14.8809 333.273 13.5 330.235 13.5V23.5ZM297.047 30.085L306.602 41.005L321.654 27.8349L312.099 16.915L297.047 30.085ZM304.886 38.2385L319.173 72.8185L337.657 65.1815L323.37 30.6015L304.886 38.2385ZM328.415 79H333.511V59H328.415V79ZM342.753 72.8185L357.04 38.2385L338.556 30.6015L324.269 65.1815L342.753 72.8185ZM355.324 41.005L364.879 30.085L349.827 16.915L340.272 27.8349L355.324 41.005ZM357.353 13.5H342.884V33.5H357.353V13.5ZM333.111 25.6175L335.477 36.5375L355.023 32.3025L352.657 21.3825L333.111 25.6175ZM335.99 30.6445L327.345 51.8475L345.865 59.3985L354.51 38.1955L335.99 30.6445ZM345.837 51.7797L337.01 30.5767L318.546 38.2633L327.373 59.4663L345.837 51.7797ZM337.534 36.6151L339.991 25.6951L320.479 21.3049L318.022 32.2249L337.534 36.6151ZM330.235 13.5H304.573V33.5H330.235V13.5ZM397.204 64.359L403.204 72.359C407.494 69.1415 408.483 63.1127 405.445 58.6937L397.204 64.359ZM394.201 59.991L402.442 54.3257C400.648 51.7175 397.726 50.1122 394.563 49.9976C391.4 49.8829 388.37 51.2725 386.392 53.744L394.201 59.991ZM383.554 67.726V77.726C384.273 77.726 384.989 77.6486 385.691 77.495L383.554 67.726ZM369.449 51.164L366.93 41.4866C364.278 42.177 362.026 43.9252 360.699 46.3227C359.373 48.7202 359.088 51.5571 359.912 54.1703L369.449 51.164ZM400.207 43.156L402.727 52.8334C407.132 51.6864 410.207 47.7085 410.207 43.156H400.207ZM387.103 43.702L389.585 53.3892C394.412 52.1526 397.592 47.5505 397.042 42.5977L387.103 43.702ZM368.63 48.434L358.943 50.9178C360.315 56.2666 365.762 59.4915 371.112 58.1212L368.63 48.434ZM345.253 46.25C345.253 65.3467 360.852 80.365 380.46 80.365V60.365C371.313 60.365 365.253 53.7253 365.253 46.25H345.253ZM380.46 80.365C392.263 80.365 398.97 75.5342 403.204 72.359L391.204 56.359C389.425 57.6937 388.181 58.5641 386.679 59.2188C385.29 59.8241 383.376 60.365 380.46 60.365V80.365ZM405.445 58.6937L402.442 54.3257L385.961 65.6563L388.964 70.0243L405.445 58.6937ZM386.392 53.744C385.804 54.4791 384.57 55.6686 383.088 56.7588C382.387 57.2751 381.777 57.659 381.329 57.9013C380.783 58.1971 380.848 58.0816 381.417 57.957L385.691 77.495C389.304 76.7047 392.743 74.4855 394.94 72.8692C397.416 71.0474 400.05 68.6879 402.01 66.2379L386.392 53.744ZM383.554 57.726C384.78 57.726 384.503 58.4943 382.964 56.4916C381.542 54.6416 380.099 51.6873 378.987 48.1576L359.912 54.1703C361.438 59.0126 363.772 64.3394 367.105 68.6774C370.321 72.8627 375.776 77.726 383.554 77.726V57.726ZM371.969 60.8414L402.727 52.8334L397.688 33.4786L366.93 41.4866L371.969 60.8414ZM410.207 43.156C410.207 35.5979 406.76 28.0209 401.64 22.4187C396.397 16.6815 388.581 12.135 379.095 12.135V32.135C381.894 32.135 384.635 33.4579 386.876 35.9108C389.241 38.4986 390.207 41.432 390.207 43.156H410.207ZM379.095 12.135C360.485 12.135 345.253 27.5152 345.253 46.25H365.253C365.253 38.4128 371.679 32.135 379.095 32.135V12.135ZM377.265 38.879C377.265 35.8346 377.849 34.0495 378.181 33.4193C378.327 33.1424 378.238 33.4415 377.671 33.8618C377.008 34.3528 375.99 34.774 374.818 34.774V14.774C367.475 14.774 362.798 19.7126 360.49 24.0912C358.183 28.466 357.265 33.7334 357.265 38.879H377.265ZM374.818 34.774C373.944 34.774 373.412 34.3814 373.416 34.3846C373.538 34.4862 374.021 34.9734 374.655 36.1661C375.946 38.5948 376.857 42.0362 377.164 44.8063L397.042 42.5977C396.531 37.9967 395.076 31.9742 392.317 26.7817C389.805 22.0549 384.355 14.774 374.818 14.774V34.774ZM384.622 34.0148L366.149 38.7468L371.112 58.1212L389.585 53.3892L384.622 34.0148ZM378.317 45.9502C377.564 43.0143 377.265 40.4975 377.265 38.879H357.265C357.265 42.5385 357.876 46.7557 358.943 50.9178L378.317 45.9502ZM402.552 69L394.104 63.6495C392.153 66.7296 392.033 70.6274 393.791 73.8216C395.549 77.0157 398.906 79 402.552 79V69ZM427.304 69V79C430.839 79 434.112 77.133 435.912 74.0896C437.711 71.0462 437.77 67.2788 436.066 64.1808L427.304 69ZM421.298 58.08H411.298C411.298 59.765 411.724 61.4227 412.536 62.8992L421.298 58.08ZM421.298 35.512L414.523 28.1565C412.467 30.0499 411.298 32.7172 411.298 35.512H421.298ZM437.405 58.08L446.167 62.8992C446.979 61.4227 447.405 59.765 447.405 58.08H437.405ZM431.399 69L422.637 64.1808C420.933 67.2788 420.991 71.0462 422.791 74.0896C424.59 77.133 427.863 79 431.399 79V69ZM456.151 69V79C459.797 79 463.154 77.0157 464.912 73.8216C466.67 70.6274 466.55 66.7296 464.599 63.6495L456.151 69ZM449.235 58.08H439.235C439.235 59.9745 439.773 61.83 440.787 63.4305L449.235 58.08ZM421.298 32.145H411.298C411.298 36.3804 413.966 40.1564 417.958 41.5708C421.95 42.9853 426.401 41.7314 429.067 38.4408L421.298 32.145ZM421.298 23.5H431.298C431.298 20.5139 429.963 17.684 427.659 15.7844C425.355 13.8848 422.323 13.1142 419.392 13.6833L421.298 23.5ZM402.552 27.14L400.646 17.3233C397.294 17.9742 394.506 20.2902 393.251 23.4657C391.997 26.6413 392.449 30.2375 394.451 33.0034L402.552 27.14ZM409.468 36.695H419.468C419.468 34.5893 418.803 32.5374 417.568 30.8316L409.468 36.695ZM409.468 58.08L417.916 63.4305C418.93 61.83 419.468 59.9745 419.468 58.08H409.468ZM402.552 79H427.304V59H402.552V79ZM436.066 64.1808L430.06 53.2608L412.536 62.8992L418.542 73.8192L436.066 64.1808ZM431.298 58.08V35.512H411.298V58.08H431.298ZM428.073 42.8674C430.906 40.2577 432.544 39.779 433.401 39.779V19.779C424.975 19.779 418.606 24.3962 414.523 28.1565L428.073 42.8674ZM433.401 39.779C433.165 39.779 432.158 39.7353 430.895 39.0476C429.533 38.306 428.572 37.1963 428.01 36.1215C427.519 35.1826 427.424 34.4554 427.407 34.3272C427.392 34.2018 427.405 34.2056 427.405 34.693H447.405C447.405 34.0428 447.554 30.3338 445.73 26.849C444.656 24.7959 442.939 22.8331 440.459 21.4829C438.079 20.1867 435.594 19.779 433.401 19.779V39.779ZM427.405 34.693V58.08H447.405V34.693H427.405ZM428.643 53.2608L422.637 64.1808L440.161 73.8192L446.167 62.8992L428.643 53.2608ZM431.399 79H456.151V59H431.399V79ZM464.599 63.6495L457.683 52.7295L440.787 63.4305L447.703 74.3505L464.599 63.6495ZM459.235 58.08V34.693H439.235V58.08H459.235ZM459.235 34.693C459.235 30.6833 458.746 24.8139 455.089 19.8721C450.944 14.2709 444.56 12.135 437.769 12.135V32.135C439.178 32.135 439.692 32.3493 439.685 32.3462C439.58 32.3022 439.264 32.1087 439.012 31.7689C438.819 31.5071 438.898 31.4721 439.015 31.9942C439.136 32.5367 439.235 33.3979 439.235 34.693H459.235ZM437.769 12.135C426.411 12.135 418.178 20.1109 413.528 25.8492L429.067 38.4408C432.971 33.6231 436.023 32.135 437.769 32.135V12.135ZM431.298 32.145V23.5H411.298V32.145H431.298ZM419.392 13.6833L400.646 17.3233L404.458 36.9566L423.204 33.3167L419.392 13.6833ZM394.451 33.0034L401.367 42.5584L417.568 30.8316L410.652 21.2766L394.451 33.0034ZM399.468 36.695V58.08H419.468V36.695H399.468ZM401.02 52.7295L394.104 63.6495L411 74.3505L417.916 63.4305L401.02 52.7295ZM457.785 25.775H447.785C447.785 31.2978 452.262 35.775 457.785 35.775V25.775ZM461.971 25.775H471.971C471.971 20.2522 467.493 15.775 461.971 15.775V25.775ZM482.901 67.453L489.147 75.2617C492.697 72.422 493.885 67.5455 492.039 63.3916L482.901 67.453ZM482.173 65.815L491.311 61.7536C490.134 59.107 487.868 57.1003 485.099 56.2528C482.329 55.4052 479.329 55.8 476.873 57.335L482.173 65.815ZM473.801 25.775V15.775C468.278 15.775 463.801 20.2522 463.801 25.775H473.801ZM481.081 25.775V35.775C486.603 35.775 491.081 31.2978 491.081 25.775H481.081ZM481.081 23.5H491.081C491.081 17.9772 486.603 13.5 481.081 13.5V23.5ZM473.801 23.5H463.801C463.801 29.0228 468.278 33.5 473.801 33.5V23.5ZM473.801 9.395H483.801C483.801 5.4312 481.459 1.84154 477.832 0.243591C474.204 -1.35435 469.976 -0.658928 467.051 2.0165L473.801 9.395ZM457.785 24.046L451.035 16.6675C448.964 18.5619 447.785 21.2393 447.785 24.046H457.785ZM457.785 35.775H461.971V15.775H457.785V35.775ZM451.971 25.775V57.807H471.971V25.775H451.971ZM451.971 57.807C451.971 63.1599 452.97 69.4335 457.499 74.2282C462.152 79.1556 468.459 80.365 473.983 80.365V60.365C472.537 60.365 471.823 60.197 471.579 60.1182C471.419 60.0663 471.699 60.1361 472.039 60.4958C472.362 60.8377 472.355 61.0367 472.253 60.6825C472.133 60.2669 471.971 59.3834 471.971 57.807H451.971ZM473.983 80.365C481.095 80.365 486.419 77.4447 489.147 75.2617L476.654 59.6443C476.738 59.5769 476.475 59.7905 475.926 60.005C475.418 60.2036 474.764 60.365 473.983 60.365V80.365ZM492.039 63.3916L491.311 61.7536L473.034 69.8764L473.762 71.5144L492.039 63.3916ZM476.873 57.335C476.704 57.4403 476.552 57.5267 476.421 57.5947C476.287 57.6633 476.198 57.7009 476.154 57.7176C476.109 57.7349 476.143 57.718 476.252 57.695C476.361 57.6718 476.582 57.635 476.895 57.635V77.635C481.669 77.635 485.553 75.4947 487.473 74.295L476.873 57.335ZM476.895 57.635C478.022 57.635 480.029 57.9679 481.861 59.5454C483.473 60.9336 483.926 62.4259 483.986 62.6293C484.052 62.8548 483.97 62.6691 483.9 61.695C483.834 60.7863 483.801 59.5392 483.801 57.807H463.801C463.801 61.2093 463.871 65.1181 464.798 68.2727C465.313 70.0231 466.38 72.6074 468.811 74.7008C471.462 76.9836 474.493 77.635 476.895 77.635V57.635ZM483.801 57.807V25.775H463.801V57.807H483.801ZM473.801 35.775H481.081V15.775H473.801V35.775ZM491.081 25.775V23.5H471.081V25.775H491.081ZM481.081 13.5H473.801V33.5H481.081V13.5ZM483.801 23.5V9.395H463.801V23.5H483.801ZM467.051 2.0165L451.035 16.6675L464.534 31.4245L480.55 16.7735L467.051 2.0165ZM447.785 24.046V25.775H467.785V24.046H447.785Z" fill="#157067"/>
</svg>
